HIERARCHY
ROOT Hips
{
  OFFSET -79.7045 102.342 5.7837
  CHANNELS 6 Xposition Yposition Zposition Zrotation Xrotation Yrotation
  JOINT RightUpLeg
  {
    OFFSET -8.9458 -8.66707 0.101652
    CHANNELS 3 Zrotation Xrotation Yrotation
    JOINT RightLeg
    {
      OFFSET 0 -44.4227 1.3727
      CHANNELS 3 Zrotation Xrotation Yrotation
      JOINT RightFoot
      {
        OFFSET 0.253549 -42.0924 -1.46059
        CHANNELS 3 Zrotation Xrotation Yrotation
        JOINT RightToes
        {
          OFFSET 0.04 -4.41509 8.4991
          CHANNELS 3 Zrotation Xrotation Yrotation
          End Site
          {
            OFFSET -0.08 -0.137448 9.77979
          }
        }
      }
    }
  }
  JOINT Spine
  {
    OFFSET 0 11.8905 0
    CHANNELS 3 Zrotation Xrotation Yrotation
    JOINT Spine1
    {
      OFFSET 0 25.6574 0.127663
      CHANNELS 3 Zrotation Xrotation Yrotation
      JOINT HEad
      {
        OFFSET 0 8.73416 0.011341
        CHANNELS 3 Zrotation Xrotation Yrotation
        End Site
        {
          OFFSET -0.29 12.7742 2.51395
        }
      }
      JOINT LeftShoulder1
      {
        OFFSET 8.99 -0.362252 -0.22
        CHANNELS 3 Zrotation Xrotation Yrotation
        JOINT LeftArm
        {
          OFFSET 10.2827 -0.00337999 0.322123
          CHANNELS 3 Zrotation Xrotation Yrotation
          JOINT LeftForeArm
          {
            OFFSET 26.2597 0.099144 -1.42434
            CHANNELS 3 Zrotation Xrotation Yrotation
            JOINT LeftHand
            {
              OFFSET 22.0902 0.085362 1.02216
              CHANNELS 3 Zrotation Xrotation Yrotation
              End Site
              {
                OFFSET 13.419 -0.6 1.50291
              }
            }
          }
        }
      }
      JOINT RightShoulder
      {
        OFFSET -8.99 -0.362252 -0.22
        CHANNELS 3 Zrotation Xrotation Yrotation
        JOINT RightArm
        {
          OFFSET -10.2827 -0.00338 0.322123
          CHANNELS 3 Zrotation Xrotation Yrotation
          JOINT RightForeArm
          {
            OFFSET -26.364 0.099144 -1.42434
            CHANNELS 3 Zrotation Xrotation Yrotation
            JOINT RightHand
            {
              OFFSET -22.0324 0.085362 1.02216
              CHANNELS 3 Zrotation Xrotation Yrotation
              End Site
              {
                OFFSET -13.3284 -0.6 1.50291
              }
            }
          }
        }
      }
    }
  }
  JOINT LeftUpLeg
  {
    OFFSET 8.9458 -8.66707 0.101652
    CHANNELS 3 Zrotation Xrotation Yrotation
    JOINT LeftLeg
    {
      OFFSET 0 -44.4227 1.3727
      CHANNELS 3 Zrotation Xrotation Yrotation
      JOINT LeftFoot
      {
        OFFSET -0.253549 -42.0924 -1.46059
        CHANNELS 3 Zrotation Xrotation Yrotation
        JOINT LeftToes
        {
          OFFSET -0.04 -4.41509 8.4991
          CHANNELS 3 Zrotation Xrotation Yrotation
          End Site
          {
            OFFSET 0.08 -0.047448 9.77979
          }
        }
      }
    }
  }
}
MOTION
Frames:	17
Frame Time:	0.0333333
-162.463 100.634 -81.5064 -7.48221 2.71009 -117.591 2.49512 -13.5496 -0.361619 -0.629464 24.108 -14.5616 -6.39218 0.364963 0.329586 0.0462048 0.000530889 0.662642 -1.46822 7.46988 -1.17269 3.62212 4.31398 -1.87122 -0.622711 25.9423 -2.44841 -34.0969 -4.56054 14.8302 -75.9542 -49.1053 -34.8812 -173.315 59.8365 178.309 9.43886 8.95214 -7.3269 30.5659 -1.36791 -7.82933 51.3813 -25.5293 14.1392 9.14443 63.019 3.82263 -0.592765 9.91101 2.09707 -1.54625 -8.92556 3.47832 1.01173 57.9314 6.91033 1.53523 -6.80249 0.0171572 -1.32579e-009 8.75267e-006 -1.47857e-008 
-164.016 101.346 -82.603 -7.11704 2.1704 -118.116 2.2625 -11.8668 -0.365215 -0.467345 21.9913 -14.2133 -6.65104 0.305047 0.344131 0.0462048 0.000530889 0.662642 -1.15299 7.36885 -0.813215 2.81205 4.19949 -1.33669 -0.786272 25.3967 -2.66628 -34.3874 -4.78759 15.3054 -74.2342 -48.9246 -33.6277 -173.408 60.6508 177.363 9.01429 8.96887 -7.74412 30.2454 -1.25949 -7.56921 52.0456 -25.225 14.9152 8.93323 62.9303 4.08127 -0.763082 9.90063 2.45061 -2.05289 -10.8594 3.59327 0.973732 52.4561 8.81527 1.38604 -6.97879 0.0184457 -1.32579e-009 8.75267e-006 -1.47857e-008 
-165.437 101.857 -83.5934 -6.63878 1.8288 -117.996 2.13107 -10.4767 -0.643883 -0.180357 20.262 -14.284 -6.56942 0.117128 0.326387 0.0462048 0.000530889 0.662642 -0.788068 7.03837 -0.791854 2.2815 4.8564 -1.19431 -0.788595 24.2221 -3.03573 -34.3013 -4.87874 15.554 -73.5603 -48.326 -33.2346 -173.412 61.4229 176.565 9.40882 8.92545 -7.7232 30.4125 -1.36409 -7.83736 52.4515 -24.4417 16.2443 8.93162 62.433 4.38924 -0.844845 9.89474 2.35366 -2.26809 -12.3551 2.69528 0.99646 46.209 10.6382 0.505632 -7.30041 0.0272823 -1.32579e-009 8.75267e-006 -1.47857e-008 
-166.739 102.245 -84.503 -6.34438 1.70265 -118.065 2.14261 -9.03337 -0.719563 0.0441951 18.802 -14.1237 -6.69493 -0.164264 0.316672 0.0462048 0.000530889 0.662642 -0.524691 7.16391 -0.603697 2.03063 4.62823 -0.949629 -1.06817 23.8321 -3.15488 -34.1905 -4.80142 15.3973 -72.8131 -48.2017 -32.2616 -173.232 62.6324 175.746 9.30061 8.89959 -8.24699 30.375 -1.28131 -7.61437 52.3973 -23.9812 16.4333 8.12261 61.8336 5.5222 -0.633423 9.90826 2.17741 -2.22859 -12.9721 1.75103 0.893279 39.3626 10.4682 0.412281 -8.27028 0.0364854 -1.32579e-009 8.75267e-006 -1.47857e-008 
-168.053 102.552 -85.3364 -6.53504 1.61624 -118.444 2.00053 -7.39464 -0.976904 0.0692697 17.8563 -13.5813 -6.71787 -0.698223 0.283707 0.0462048 0.000530889 0.662642 -0.741143 7.04519 -0.322906 2.18218 5.24478 -0.711005 -1.23715 23.5706 -3.26037 -34.4746 -4.94071 15.6539 -73.1911 -47.5741 -33.1288 -173.131 63.1535 175.371 9.23573 8.9147 -8.1473 29.9537 -1.09868 -7.15443 52.8774 -23.814 16.9161 8.1889 61.3968 5.42933 -1.17463 9.8729 2.54961 -2.45667 -12.2371 0.576496 0.758078 32.2569 9.55804 -0.0214697 -8.80392 0.0376743 -1.32579e-009 8.75267e-006 -1.47857e-008 
-169.314 102.767 -86.056 -6.59273 1.66671 -119.059 2.07536 -6.1013 -1.07826 -0.0194095 17.3113 -12.9164 -6.72032 -1.15451 0.253792 0.0462048 0.000530889 0.662642 -0.704546 6.38468 -0.233641 2.00043 6.33865 -0.577344 -1.21348 23.4967 -3.01285 -34.2914 -4.94663 15.7175 -74.2368 -47.2254 -34.1688 -173.088 63.1907 175.571 9.27519 8.92039 -8.00393 29.739 -0.964383 -6.80208 53.5277 -23.4529 17.6652 8.10114 61.5333 5.55895 -1.00115 9.88402 2.40248 -2.44021 -11.257 -0.701054 0.702642 26.2597 9.34198 -0.562416 -8.78796 0.0314798 -1.32579e-009 8.75267e-006 -1.47857e-008 
-170.618 102.861 -86.7228 -6.79492 2.03007 -119.53 2.2567 -4.5891 -1.26051 -0.00811883 16.9403 -12.4711 -7.13757 -1.86991 0.228301 0.0462048 0.000530889 0.662642 -0.333631 6.88713 -0.183406 1.67079 5.8078 -0.425274 -1.06437 24.4463 -2.97447 -33.6057 -4.52478 14.8842 -74.1165 -47.6749 -32.7948 -173.025 63.4045 175.546 8.74991 8.97537 -8.09373 29.9443 -1.13317 -7.2524 53.0698 -22.312 17.513 7.27155 61.5127 7.00799 -0.750735 9.89998 1.90525 -2.24276 -9.98854 -1.96613 0.766196 22.23 9.92473 -0.775949 -8.52701 0.029604 -1.32579e-009 8.75267e-006 -1.47857e-008 
-172.009 102.93 -87.3305 -7.19383 2.42184 -121.058 2.33352 -3.17187 -1.38365 -0.235038 17.0555 -11.0089 -7.36213 -2.68959 0.182691 0.0462048 0.000530889 0.662642 -0.419717 6.60075 0.0627133 1.4354 6.28603 -0.106466 -1.29829 25.1305 -2.19936 -33.7044 -4.61294 15.0736 -74.1855 -47.5085 -33.2466 -172.944 63.7212 175.402 9.48262 8.88203 -8.19015 30.0844 -1.09229 -7.12495 52.5269 -21.0376 17.4696 7.58074 60.5842 7.15314 -1.14116 9.87547 2.44507 -2.09329 -8.19785 -1.47113 0.956636 19.26 10.2749 -0.0448775 -7.37503 0.0306361 -1.32579e-009 8.75267e-006 -1.47857e-008 
-173.266 102.842 -87.8657 -7.08726 3.09987 -121.762 2.98212 -2.19976 -1.11912 -0.449852 17.4347 -10.6192 -7.06039 -3.65682 0.102591 0.0462048 0.000530889 0.662642 -0.0450633 6.36428 -0.172684 1.36804 6.42181 -0.29622 -1.65055 25.3347 -1.42473 -33.6 -4.59896 15.0693 -73.9135 -47.436 -33.1459 -172.807 64.261 175.05 10.0249 8.80645 -8.33965 30.4109 -1.08221 -7.06518 51.6652 -19.2047 17.0512 6.81832 58.7002 8.59379 -0.80566 9.89801 2.66946 -1.41058 -6.9531 -0.75295 0.979518 17.6532 9.66306 0.406563 -4.99308 0.00152884 -1.32579e-009 8.75267e-006 -1.47857e-008 
-174.472 102.795 -88.2608 -7.04815 3.69403 -122.557 3.34332 -1.16496 -1.005 -0.549759 17.5381 -9.94858 -7.00835 -4.47364 0.0454509 0.0462048 0.000530889 0.662642 0.154975 5.82605 -0.258883 1.46551 7.19894 -0.412003 -2.29657 25.1545 -0.758246 -33.9423 -4.71017 15.2446 -74.3733 -47.1231 -33.7562 -172.737 64.4957 174.958 9.52993 8.87423 -8.2216 30.5509 -1.09382 -7.08387 50.6532 -17.0494 16.883 6.24037 56.4377 9.87861 -0.764496 9.90148 2.63259 -1.08366 -5.63496 0.096415 0.962606 16.8661 9.93415 2.32695 -3.2641 -0.0815369 -1.32579e-009 8.75267e-006 -1.47857e-008 
-175.616 102.859 -88.6282 -7.16663 4.15161 -122.816 3.46086 0.239507 -1.02215 -0.579684 17.0203 -9.56529 -6.85102 -4.94356 0.00991365 0.0462048 0.000530889 0.662642 -0.480795 5.68349 -0.61433 2.09316 7.46934 -0.974185 -2.71072 25.1311 -0.136279 -34.0799 -4.80747 15.4452 -75.5913 -47.3364 -34.7609 -172.31 65.7346 175.092 8.96008 8.94528 -8.17326 30.8983 -1.16865 -7.25056 50.3309 -17.0024 17.2188 6.81079 56.857 9.28499 -0.788981 9.90137 2.69832 -1.19628 -4.64132 -0.108723 1.17542 17.0977 10.4977 4.63387 -3.64178 -0.157146 -1.32579e-009 8.75267e-006 -1.47857e-008 
-176.679 102.984 -88.9317 -7.2685 4.06104 -123.191 3.24025 1.20205 -1.09212 -0.98237 16.5592 -8.98766 -6.5819 -5.26368 -0.0174442 0.0462048 0.000530889 0.662642 -1.0503 4.98856 -0.736253 2.21892 7.75731 -1.12493 -2.19823 25.8256 -0.21057 -33.4676 -4.4096 14.6287 -78.1974 -48.5084 -36.2311 -171.89 67.0773 176.468 8.9154 8.94641 -8.23242 31.6819 -1.37185 -7.71385 50.523 -18.954 17.8156 8.81612 59.3094 6.63914 -0.786407 9.90086 2.57929 -1.7204 -3.60121 -0.524619 1.34815 16.4916 11.393 4.80736 -3.73958 -0.158405 -1.32579e-009 8.75267e-006 -1.47857e-008 
-177.749 103.228 -89.248 -7.09109 3.94829 -123.738 3.16057 2.42747 -0.95042 -1.34869 14.9633 -8.56165 -6.23352 -5.02982 -0.0102759 0.0462048 0.000530889 0.662642 -1.36051 4.04486 -0.830887 2.12856 7.98622 -1.21636 -1.84231 26.803 -0.0945281 -32.9518 -4.18104 14.1964 -80.7608 -49.7812 -37.5662 -171.79 67.7976 178.3 8.82079 8.97242 -8.0137 31.6032 -1.38217 -7.74737 51.766 -21.7426 17.7567 10.1957 62.4237 4.18144 -0.881256 9.89735 2.696 -1.86752 -2.37947 -0.00734303 1.30436 15.0231 11.4502 4.85247 -3.51493 -0.170612 -1.32579e-009 8.75267e-006 -1.47857e-008 
-178.718 103.443 -89.4952 -6.79297 3.53815 -124.552 2.66576 3.1267 -1.1213 -1.47128 13.6444 -7.52578 -5.63688 -4.98476 -0.0216079 0.0462048 0.000530889 0.662642 -2.02971 2.95885 -0.858223 2.41425 8.19563 -1.33921 -2.45107 27.0676 0.575651 -33.3845 -4.44321 14.7403 -82.1579 -50.296 -39.0543 -172.011 66.6506 179.763 8.41506 9.0368 -7.7525 31.1845 -1.27687 -7.51317 52.9729 -23.7694 17.7381 11.5423 64.569 1.79474 -0.828715 9.89579 2.37453 -2.19515 -1.23276 0.426684 1.1443 13.0414 11.8492 4.78037 -3.28772 -0.179199 -1.32579e-009 8.75267e-006 -1.47857e-008 
-179.626 103.608 -89.6569 -6.61431 3.10538 -125.478 2.03077 3.57588 -1.36729 -1.60227 12.8257 -6.23269 -5.04655 -5.04842 -0.0387727 0.0462048 0.000530889 0.662642 -1.93103 1.86637 -0.801596 1.49308 8.81482 -1.07052 -2.20574 26.4291 0.325699 -33.0467 -4.25959 14.3722 -82.4248 -50.6827 -38.928 -171.948 67.1914 179.973 8.48598 9.0349 -7.65417 31.7553 -1.46103 -7.94104 52.6076 -23.6049 17.8088 12.5779 65.097 0.765861 -0.814769 9.89671 2.35524 -2.84295 -0.118227 0.29345 1.17649 11.1237 12.9573 5.12394 -2.9207 -0.210725 -1.32579e-009 8.75267e-006 -1.47857e-008 
-180.455 103.698 -89.7871 -6.46972 2.9122 -126.46 1.62052 3.89809 -1.52596 -1.75311 12.4525 -5.0838 -5.03326 -5.21912 -0.0477263 0.0462048 0.000530889 0.662642 -1.82376 1.02946 -0.688585 0.983898 9.46732 -0.838925 -2.37307 25.5184 0.265441 -33.2463 -4.35433 14.5562 -83.0412 -50.6965 -40.0517 -171.918 67.5721 -179.658 8.74896 9.00126 -7.7092 31.8077 -1.44055 -7.87991 52.3356 -23.1904 17.5406 12.6267 64.8364 0.95047 -0.585745 9.91133 2.07525 -3.27901 0.797859 0.191078 1.21708 9.86916 14.1118 5.27756 -2.89828 -0.218277 -1.32579e-009 8.75267e-006 -1.47857e-008 
-181.018 103.736 -89.9001 -6.07638 2.86101 -126.724 1.6412 4.09808 -1.41921 -1.77502 11.9366 -4.89799 -4.75232 -5.24079 -0.0547294 0.0462048 0.000530889 0.662642 -2.22674 1.02744 -0.78184 1.52587 9.09562 -1.09207 -2.49206 25.1072 -0.307291 -33.3819 -4.39168 14.6115 -82.7105 -50.7868 -39.7199 -171.906 67.6353 -179.79 8.55635 9.04581 -7.3694 31.4814 -1.3158 -7.58622 52.5592 -23.9697 17.0616 12.4706 65.8866 0.786254 -0.613504 9.91083 2.55553 -3.20906 0.893338 0.362831 1.1398 9.6286 14.2014 5.37351 -3.11668 -0.210852 -1.32579e-009 8.75267e-006 -1.47857e-008 
